<svg width="240px" height="240px" fill="white" viewBox="0 0 240 240" xmlns="http://www.w3.org/2000/svg"><path d="M120.972 236.949c-51.787 0 -92.854 -30.312 -111.788 -73.526 -21.047 -48.035 -4.244 -125.1 33.35 -159.117l-1.463 37.571c1.959 -2.372 16.255 -3.015 18.589 0.025 7.652 -14.825 32.72 -25.947 52.86 -26.303 -7.667 6.365 -25.376 29.767 -23.789 41.774 9.76 3.004 24.755 3.139 32.636 3.672 2.39 1.314 2.016 9.599 -2.842 16.278 -6.338 8.715 -23.296 11.769 -23.296 11.769l1.981 25.357 -18.606 -8.992c-6.031 15.177 8.45 28.779 23.5 26.205 16.542 -2.83 22.431 -13.629 34.059 -12.954 11.628 0.675 16.187 7.045 14.652 13.098 -1.819 7.174 -14.382 6.02 -14.382 6.02 -10.517 16.768 -24.557 24.063 -47.367 22.126 34.622 28.578 81.146 2.622 92.937 -20.758 11.791 -23.379 1.543 -57.96 -10.33 -67.821 13.974 5.981 23.642 12.231 28.661 25.695 2.76 -29.976 -11.089 -63.986 -35.758 -83.907 46.363 13.441 74.649 49.368 75.442 106.72 0.793 57.351 -50.753 117.067 -119.049 117.067z"/></svg>